<mxfile host="app.diagrams.net" modified="2023-11-22T10:26:01.612Z" agent="Mozilla/5.0 (Macintosh; Intel Mac OS X 10_15_7) AppleWebKit/537.36 (KHTML, like Gecko) Chrome/119.0.0.0 Safari/537.36" etag="WDo5amPMAlwcIlVW5vCF" version="22.1.3" type="github" pages="2">
  <diagram id="C5RBs43oDa-KdzZeNtuy" name="Page-1">
    <mxGraphModel dx="1444" dy="927" grid="1" gridSize="10" guides="1" tooltips="1" connect="1" arrows="1" fold="1" page="1" pageScale="1" pageWidth="827" pageHeight="1169" math="0" shadow="0">
      <root>
        <mxCell id="WIyWlLk6GJQsqaUBKTNV-0" />
        <mxCell id="WIyWlLk6GJQsqaUBKTNV-1" parent="WIyWlLk6GJQsqaUBKTNV-0" />
        <mxCell id="WIyWlLk6GJQsqaUBKTNV-2" value="" style="rounded=0;html=1;jettySize=auto;orthogonalLoop=1;fontSize=11;endArrow=classicThin;endFill=0;endSize=8;strokeWidth=1;shadow=0;labelBackgroundColor=none;edgeStyle=orthogonalEdgeStyle;" parent="WIyWlLk6GJQsqaUBKTNV-1" source="WIyWlLk6GJQsqaUBKTNV-3" target="WIyWlLk6GJQsqaUBKTNV-6" edge="1">
          <mxGeometry relative="1" as="geometry" />
        </mxCell>
        <mxCell id="hwLjqELJ7lXyZNX20_mi-0" value="Pro forma review" style="edgeLabel;html=1;align=center;verticalAlign=middle;resizable=0;points=[];" vertex="1" connectable="0" parent="WIyWlLk6GJQsqaUBKTNV-2">
          <mxGeometry x="-0.44" relative="1" as="geometry">
            <mxPoint y="13" as="offset" />
          </mxGeometry>
        </mxCell>
        <mxCell id="WIyWlLk6GJQsqaUBKTNV-3" value="Filing an application with the Chiese Trademark Office" style="rounded=1;whiteSpace=wrap;html=1;fontSize=12;glass=0;strokeWidth=1;shadow=0;" parent="WIyWlLk6GJQsqaUBKTNV-1" vertex="1">
          <mxGeometry x="160" y="70" width="120" height="40" as="geometry" />
        </mxCell>
        <mxCell id="WIyWlLk6GJQsqaUBKTNV-5" value="No" style="edgeStyle=orthogonalEdgeStyle;rounded=0;html=1;jettySize=auto;orthogonalLoop=1;fontSize=11;endArrow=block;endFill=0;endSize=8;strokeWidth=1;shadow=0;labelBackgroundColor=none;entryX=0.5;entryY=0;entryDx=0;entryDy=0;" parent="WIyWlLk6GJQsqaUBKTNV-1" source="WIyWlLk6GJQsqaUBKTNV-6" target="WIyWlLk6GJQsqaUBKTNV-7" edge="1">
          <mxGeometry y="10" relative="1" as="geometry">
            <mxPoint as="offset" />
          </mxGeometry>
        </mxCell>
        <mxCell id="hwLjqELJ7lXyZNX20_mi-2" value="" style="edgeStyle=orthogonalEdgeStyle;rounded=0;orthogonalLoop=1;jettySize=auto;html=1;" edge="1" parent="WIyWlLk6GJQsqaUBKTNV-1" source="WIyWlLk6GJQsqaUBKTNV-6" target="hwLjqELJ7lXyZNX20_mi-1">
          <mxGeometry relative="1" as="geometry" />
        </mxCell>
        <mxCell id="hwLjqELJ7lXyZNX20_mi-3" value="basically &lt;br&gt;conforms" style="edgeLabel;html=1;align=center;verticalAlign=middle;resizable=0;points=[];" vertex="1" connectable="0" parent="hwLjqELJ7lXyZNX20_mi-2">
          <mxGeometry x="-0.2571" y="-1" relative="1" as="geometry">
            <mxPoint y="1" as="offset" />
          </mxGeometry>
        </mxCell>
        <mxCell id="hwLjqELJ7lXyZNX20_mi-9" value="yes" style="edgeStyle=orthogonalEdgeStyle;rounded=0;orthogonalLoop=1;jettySize=auto;html=1;" edge="1" parent="WIyWlLk6GJQsqaUBKTNV-1" source="WIyWlLk6GJQsqaUBKTNV-6" target="hwLjqELJ7lXyZNX20_mi-10">
          <mxGeometry relative="1" as="geometry">
            <mxPoint x="220" y="280" as="targetPoint" />
          </mxGeometry>
        </mxCell>
        <mxCell id="WIyWlLk6GJQsqaUBKTNV-6" value="meet requirements？" style="rhombus;whiteSpace=wrap;html=1;shadow=0;fontFamily=Helvetica;fontSize=12;align=center;strokeWidth=1;spacing=6;spacingTop=-4;" parent="WIyWlLk6GJQsqaUBKTNV-1" vertex="1">
          <mxGeometry x="170" y="170" width="100" height="80" as="geometry" />
        </mxCell>
        <mxCell id="WIyWlLk6GJQsqaUBKTNV-7" value="Not Accepted" style="rounded=1;whiteSpace=wrap;html=1;fontSize=12;glass=0;strokeWidth=1;shadow=0;" parent="WIyWlLk6GJQsqaUBKTNV-1" vertex="1">
          <mxGeometry x="30" y="250" width="120" height="40" as="geometry" />
        </mxCell>
        <mxCell id="hwLjqELJ7lXyZNX20_mi-41" value="" style="edgeStyle=orthogonalEdgeStyle;rounded=0;orthogonalLoop=1;jettySize=auto;html=1;" edge="1" parent="WIyWlLk6GJQsqaUBKTNV-1" source="WIyWlLk6GJQsqaUBKTNV-11" target="hwLjqELJ7lXyZNX20_mi-40">
          <mxGeometry relative="1" as="geometry" />
        </mxCell>
        <mxCell id="WIyWlLk6GJQsqaUBKTNV-11" value="Preliminary&amp;nbsp;Examination Announcement" style="rounded=1;whiteSpace=wrap;html=1;fontSize=12;glass=0;strokeWidth=1;shadow=0;" parent="WIyWlLk6GJQsqaUBKTNV-1" vertex="1">
          <mxGeometry x="160" y="620" width="120" height="40" as="geometry" />
        </mxCell>
        <mxCell id="WIyWlLk6GJQsqaUBKTNV-12" value="Replace Bulb" style="rounded=1;whiteSpace=wrap;html=1;fontSize=12;glass=0;strokeWidth=1;shadow=0;" parent="WIyWlLk6GJQsqaUBKTNV-1" vertex="1">
          <mxGeometry x="660" y="330" width="120" height="40" as="geometry" />
        </mxCell>
        <mxCell id="hwLjqELJ7lXyZNX20_mi-5" value="" style="edgeStyle=orthogonalEdgeStyle;rounded=0;orthogonalLoop=1;jettySize=auto;html=1;" edge="1" parent="WIyWlLk6GJQsqaUBKTNV-1" source="hwLjqELJ7lXyZNX20_mi-1" target="hwLjqELJ7lXyZNX20_mi-4">
          <mxGeometry relative="1" as="geometry" />
        </mxCell>
        <mxCell id="hwLjqELJ7lXyZNX20_mi-1" value="fixed deadline for correction" style="rounded=1;whiteSpace=wrap;html=1;shadow=0;strokeWidth=1;spacing=6;spacingTop=-4;" vertex="1" parent="WIyWlLk6GJQsqaUBKTNV-1">
          <mxGeometry x="380" y="180" width="120" height="60" as="geometry" />
        </mxCell>
        <mxCell id="hwLjqELJ7lXyZNX20_mi-11" style="edgeStyle=orthogonalEdgeStyle;rounded=0;orthogonalLoop=1;jettySize=auto;html=1;exitX=0.5;exitY=1;exitDx=0;exitDy=0;entryX=1;entryY=0.5;entryDx=0;entryDy=0;" edge="1" parent="WIyWlLk6GJQsqaUBKTNV-1" source="hwLjqELJ7lXyZNX20_mi-4" target="hwLjqELJ7lXyZNX20_mi-10">
          <mxGeometry relative="1" as="geometry" />
        </mxCell>
        <mxCell id="hwLjqELJ7lXyZNX20_mi-12" value="yes" style="edgeLabel;html=1;align=center;verticalAlign=middle;resizable=0;points=[];" vertex="1" connectable="0" parent="hwLjqELJ7lXyZNX20_mi-11">
          <mxGeometry x="0.17" y="1" relative="1" as="geometry">
            <mxPoint as="offset" />
          </mxGeometry>
        </mxCell>
        <mxCell id="hwLjqELJ7lXyZNX20_mi-14" value="" style="edgeStyle=orthogonalEdgeStyle;rounded=0;orthogonalLoop=1;jettySize=auto;html=1;" edge="1" parent="WIyWlLk6GJQsqaUBKTNV-1" source="hwLjqELJ7lXyZNX20_mi-4" target="hwLjqELJ7lXyZNX20_mi-13">
          <mxGeometry relative="1" as="geometry" />
        </mxCell>
        <mxCell id="hwLjqELJ7lXyZNX20_mi-4" value="meet requirements？" style="rhombus;whiteSpace=wrap;html=1;rounded=1;shadow=0;strokeWidth=1;spacing=6;spacingTop=-4;" vertex="1" parent="WIyWlLk6GJQsqaUBKTNV-1">
          <mxGeometry x="570" y="170" width="80" height="80" as="geometry" />
        </mxCell>
        <mxCell id="hwLjqELJ7lXyZNX20_mi-17" value="" style="edgeStyle=orthogonalEdgeStyle;rounded=0;orthogonalLoop=1;jettySize=auto;html=1;" edge="1" parent="WIyWlLk6GJQsqaUBKTNV-1" source="hwLjqELJ7lXyZNX20_mi-10" target="hwLjqELJ7lXyZNX20_mi-16">
          <mxGeometry relative="1" as="geometry" />
        </mxCell>
        <mxCell id="hwLjqELJ7lXyZNX20_mi-10" value="Substantive reviews" style="rounded=1;whiteSpace=wrap;html=1;" vertex="1" parent="WIyWlLk6GJQsqaUBKTNV-1">
          <mxGeometry x="160" y="290" width="120" height="60" as="geometry" />
        </mxCell>
        <mxCell id="hwLjqELJ7lXyZNX20_mi-13" value="Not Accepted" style="whiteSpace=wrap;html=1;rounded=1;shadow=0;strokeWidth=1;spacing=6;spacingTop=-4;" vertex="1" parent="WIyWlLk6GJQsqaUBKTNV-1">
          <mxGeometry x="710" y="180" width="120" height="60" as="geometry" />
        </mxCell>
        <mxCell id="hwLjqELJ7lXyZNX20_mi-19" value="" style="edgeStyle=orthogonalEdgeStyle;rounded=0;orthogonalLoop=1;jettySize=auto;html=1;" edge="1" parent="WIyWlLk6GJQsqaUBKTNV-1" source="hwLjqELJ7lXyZNX20_mi-16" target="hwLjqELJ7lXyZNX20_mi-18">
          <mxGeometry relative="1" as="geometry" />
        </mxCell>
        <mxCell id="hwLjqELJ7lXyZNX20_mi-20" value="" style="edgeStyle=orthogonalEdgeStyle;rounded=0;orthogonalLoop=1;jettySize=auto;html=1;" edge="1" parent="WIyWlLk6GJQsqaUBKTNV-1" source="hwLjqELJ7lXyZNX20_mi-16" target="hwLjqELJ7lXyZNX20_mi-18">
          <mxGeometry relative="1" as="geometry" />
        </mxCell>
        <mxCell id="hwLjqELJ7lXyZNX20_mi-21" style="edgeStyle=orthogonalEdgeStyle;rounded=0;orthogonalLoop=1;jettySize=auto;html=1;entryX=0;entryY=0.5;entryDx=0;entryDy=0;strokeColor=#007FFF;" edge="1" parent="WIyWlLk6GJQsqaUBKTNV-1" source="hwLjqELJ7lXyZNX20_mi-16" target="hwLjqELJ7lXyZNX20_mi-22">
          <mxGeometry relative="1" as="geometry">
            <mxPoint x="320" y="510" as="targetPoint" />
          </mxGeometry>
        </mxCell>
        <mxCell id="hwLjqELJ7lXyZNX20_mi-23" value="no" style="edgeLabel;html=1;align=center;verticalAlign=middle;resizable=0;points=[];" vertex="1" connectable="0" parent="hwLjqELJ7lXyZNX20_mi-21">
          <mxGeometry x="-0.8454" y="-3" relative="1" as="geometry">
            <mxPoint y="1" as="offset" />
          </mxGeometry>
        </mxCell>
        <mxCell id="hwLjqELJ7lXyZNX20_mi-35" style="edgeStyle=orthogonalEdgeStyle;rounded=0;orthogonalLoop=1;jettySize=auto;html=1;" edge="1" parent="WIyWlLk6GJQsqaUBKTNV-1" source="hwLjqELJ7lXyZNX20_mi-16" target="WIyWlLk6GJQsqaUBKTNV-11">
          <mxGeometry relative="1" as="geometry" />
        </mxCell>
        <mxCell id="hwLjqELJ7lXyZNX20_mi-36" value="yes" style="edgeLabel;html=1;align=center;verticalAlign=middle;resizable=0;points=[];" vertex="1" connectable="0" parent="hwLjqELJ7lXyZNX20_mi-35">
          <mxGeometry x="-0.04" relative="1" as="geometry">
            <mxPoint as="offset" />
          </mxGeometry>
        </mxCell>
        <mxCell id="hwLjqELJ7lXyZNX20_mi-16" value="meet requirements？" style="rhombus;whiteSpace=wrap;html=1;rounded=1;" vertex="1" parent="WIyWlLk6GJQsqaUBKTNV-1">
          <mxGeometry x="180" y="390" width="80" height="80" as="geometry" />
        </mxCell>
        <mxCell id="hwLjqELJ7lXyZNX20_mi-25" value="" style="edgeStyle=orthogonalEdgeStyle;rounded=0;orthogonalLoop=1;jettySize=auto;html=1;" edge="1" parent="WIyWlLk6GJQsqaUBKTNV-1" source="hwLjqELJ7lXyZNX20_mi-18" target="hwLjqELJ7lXyZNX20_mi-26">
          <mxGeometry relative="1" as="geometry">
            <mxPoint x="554" y="430" as="targetPoint" />
          </mxGeometry>
        </mxCell>
        <mxCell id="hwLjqELJ7lXyZNX20_mi-18" value="Reject Registration" style="whiteSpace=wrap;html=1;rounded=1;" vertex="1" parent="WIyWlLk6GJQsqaUBKTNV-1">
          <mxGeometry x="354" y="400" width="120" height="60" as="geometry" />
        </mxCell>
        <mxCell id="hwLjqELJ7lXyZNX20_mi-27" style="edgeStyle=orthogonalEdgeStyle;rounded=0;orthogonalLoop=1;jettySize=auto;html=1;entryX=0;entryY=0.5;entryDx=0;entryDy=0;strokeColor=#007FFF;" edge="1" parent="WIyWlLk6GJQsqaUBKTNV-1" source="hwLjqELJ7lXyZNX20_mi-22" target="hwLjqELJ7lXyZNX20_mi-26">
          <mxGeometry relative="1" as="geometry" />
        </mxCell>
        <mxCell id="hwLjqELJ7lXyZNX20_mi-22" value="&lt;font color=&quot;#007fff&quot;&gt;Partrially&amp;nbsp;Reject Registration&lt;/font&gt;" style="rounded=1;whiteSpace=wrap;html=1;strokeColor=#007FFF;" vertex="1" parent="WIyWlLk6GJQsqaUBKTNV-1">
          <mxGeometry x="354" y="500" width="120" height="60" as="geometry" />
        </mxCell>
        <mxCell id="hwLjqELJ7lXyZNX20_mi-29" value="" style="edgeStyle=orthogonalEdgeStyle;rounded=0;orthogonalLoop=1;jettySize=auto;html=1;" edge="1" parent="WIyWlLk6GJQsqaUBKTNV-1" source="hwLjqELJ7lXyZNX20_mi-26" target="hwLjqELJ7lXyZNX20_mi-28">
          <mxGeometry relative="1" as="geometry" />
        </mxCell>
        <mxCell id="hwLjqELJ7lXyZNX20_mi-30" value="no" style="edgeLabel;html=1;align=center;verticalAlign=middle;resizable=0;points=[];" vertex="1" connectable="0" parent="hwLjqELJ7lXyZNX20_mi-29">
          <mxGeometry x="-0.1667" relative="1" as="geometry">
            <mxPoint as="offset" />
          </mxGeometry>
        </mxCell>
        <mxCell id="hwLjqELJ7lXyZNX20_mi-32" value="" style="edgeStyle=orthogonalEdgeStyle;rounded=0;orthogonalLoop=1;jettySize=auto;html=1;" edge="1" parent="WIyWlLk6GJQsqaUBKTNV-1" source="hwLjqELJ7lXyZNX20_mi-26" target="hwLjqELJ7lXyZNX20_mi-31">
          <mxGeometry relative="1" as="geometry" />
        </mxCell>
        <mxCell id="hwLjqELJ7lXyZNX20_mi-34" value="yes" style="edgeLabel;html=1;align=center;verticalAlign=middle;resizable=0;points=[];" vertex="1" connectable="0" parent="hwLjqELJ7lXyZNX20_mi-32">
          <mxGeometry x="-0.3333" y="2" relative="1" as="geometry">
            <mxPoint as="offset" />
          </mxGeometry>
        </mxCell>
        <mxCell id="hwLjqELJ7lXyZNX20_mi-37" style="edgeStyle=orthogonalEdgeStyle;rounded=0;orthogonalLoop=1;jettySize=auto;html=1;entryX=1;entryY=0.5;entryDx=0;entryDy=0;strokeColor=#007FFF;" edge="1" parent="WIyWlLk6GJQsqaUBKTNV-1" source="hwLjqELJ7lXyZNX20_mi-26" target="WIyWlLk6GJQsqaUBKTNV-11">
          <mxGeometry relative="1" as="geometry">
            <Array as="points">
              <mxPoint x="610" y="640" />
            </Array>
          </mxGeometry>
        </mxCell>
        <mxCell id="hwLjqELJ7lXyZNX20_mi-38" value="no" style="edgeLabel;html=1;align=center;verticalAlign=middle;resizable=0;points=[];fontColor=#007FFF;" vertex="1" connectable="0" parent="hwLjqELJ7lXyZNX20_mi-37">
          <mxGeometry x="-0.7422" y="-6" relative="1" as="geometry">
            <mxPoint as="offset" />
          </mxGeometry>
        </mxCell>
        <mxCell id="hwLjqELJ7lXyZNX20_mi-39" value="partially&amp;nbsp; accecpted" style="edgeLabel;html=1;align=center;verticalAlign=middle;resizable=0;points=[];fontColor=#007FFF;" vertex="1" connectable="0" parent="hwLjqELJ7lXyZNX20_mi-37">
          <mxGeometry x="0.3067" relative="1" as="geometry">
            <mxPoint as="offset" />
          </mxGeometry>
        </mxCell>
        <mxCell id="hwLjqELJ7lXyZNX20_mi-26" value="appeal?" style="rhombus;whiteSpace=wrap;html=1;" vertex="1" parent="WIyWlLk6GJQsqaUBKTNV-1">
          <mxGeometry x="570" y="440" width="80" height="80" as="geometry" />
        </mxCell>
        <mxCell id="hwLjqELJ7lXyZNX20_mi-28" value="delete trademark" style="whiteSpace=wrap;html=1;" vertex="1" parent="WIyWlLk6GJQsqaUBKTNV-1">
          <mxGeometry x="707" y="390" width="120" height="60" as="geometry" />
        </mxCell>
        <mxCell id="hwLjqELJ7lXyZNX20_mi-31" value="registeration rejected reviews" style="rounded=1;whiteSpace=wrap;html=1;" vertex="1" parent="WIyWlLk6GJQsqaUBKTNV-1">
          <mxGeometry x="1121" y="450" width="120" height="60" as="geometry" />
        </mxCell>
        <mxCell id="hwLjqELJ7lXyZNX20_mi-43" value="" style="edgeStyle=orthogonalEdgeStyle;rounded=0;orthogonalLoop=1;jettySize=auto;html=1;entryX=0.5;entryY=1;entryDx=0;entryDy=0;" edge="1" parent="WIyWlLk6GJQsqaUBKTNV-1" source="hwLjqELJ7lXyZNX20_mi-40" target="hwLjqELJ7lXyZNX20_mi-42">
          <mxGeometry relative="1" as="geometry">
            <Array as="points">
              <mxPoint x="220" y="970" />
              <mxPoint x="1181" y="970" />
            </Array>
          </mxGeometry>
        </mxCell>
        <mxCell id="hwLjqELJ7lXyZNX20_mi-47" value="no" style="edgeLabel;html=1;align=center;verticalAlign=middle;resizable=0;points=[];" vertex="1" connectable="0" parent="hwLjqELJ7lXyZNX20_mi-43">
          <mxGeometry x="-0.2222" relative="1" as="geometry">
            <mxPoint as="offset" />
          </mxGeometry>
        </mxCell>
        <mxCell id="hwLjqELJ7lXyZNX20_mi-45" value="" style="edgeStyle=orthogonalEdgeStyle;rounded=0;orthogonalLoop=1;jettySize=auto;html=1;" edge="1" parent="WIyWlLk6GJQsqaUBKTNV-1" source="hwLjqELJ7lXyZNX20_mi-40" target="hwLjqELJ7lXyZNX20_mi-44">
          <mxGeometry relative="1" as="geometry" />
        </mxCell>
        <mxCell id="hwLjqELJ7lXyZNX20_mi-46" value="yes" style="edgeLabel;html=1;align=center;verticalAlign=middle;resizable=0;points=[];" vertex="1" connectable="0" parent="hwLjqELJ7lXyZNX20_mi-45">
          <mxGeometry x="-0.4" y="1" relative="1" as="geometry">
            <mxPoint as="offset" />
          </mxGeometry>
        </mxCell>
        <mxCell id="hwLjqELJ7lXyZNX20_mi-40" value="is there an&amp;nbsp;&lt;span style=&quot;background-color: initial;&quot;&gt;oppsition?&lt;/span&gt;" style="rhombus;whiteSpace=wrap;html=1;rounded=1;glass=0;strokeWidth=1;shadow=0;" vertex="1" parent="WIyWlLk6GJQsqaUBKTNV-1">
          <mxGeometry x="180" y="720" width="80" height="80" as="geometry" />
        </mxCell>
        <mxCell id="hwLjqELJ7lXyZNX20_mi-42" value="Registration Announcement&amp;nbsp;" style="whiteSpace=wrap;html=1;rounded=1;glass=0;strokeWidth=1;shadow=0;" vertex="1" parent="WIyWlLk6GJQsqaUBKTNV-1">
          <mxGeometry x="1121" y="870" width="120" height="60" as="geometry" />
        </mxCell>
        <mxCell id="hwLjqELJ7lXyZNX20_mi-48" style="edgeStyle=orthogonalEdgeStyle;rounded=0;orthogonalLoop=1;jettySize=auto;html=1;entryX=0;entryY=0.75;entryDx=0;entryDy=0;" edge="1" parent="WIyWlLk6GJQsqaUBKTNV-1" source="hwLjqELJ7lXyZNX20_mi-44" target="hwLjqELJ7lXyZNX20_mi-42">
          <mxGeometry relative="1" as="geometry">
            <Array as="points">
              <mxPoint x="380" y="925" />
            </Array>
          </mxGeometry>
        </mxCell>
        <mxCell id="hwLjqELJ7lXyZNX20_mi-49" value="approve of registration" style="edgeLabel;html=1;align=center;verticalAlign=middle;resizable=0;points=[];" vertex="1" connectable="0" parent="hwLjqELJ7lXyZNX20_mi-48">
          <mxGeometry x="-0.4435" relative="1" as="geometry">
            <mxPoint as="offset" />
          </mxGeometry>
        </mxCell>
        <mxCell id="hwLjqELJ7lXyZNX20_mi-51" value="" style="edgeStyle=orthogonalEdgeStyle;rounded=0;orthogonalLoop=1;jettySize=auto;html=1;entryX=0;entryY=0.5;entryDx=0;entryDy=0;" edge="1" parent="WIyWlLk6GJQsqaUBKTNV-1" source="hwLjqELJ7lXyZNX20_mi-44" target="hwLjqELJ7lXyZNX20_mi-65">
          <mxGeometry relative="1" as="geometry">
            <mxPoint x="750" y="750" as="targetPoint" />
            <Array as="points">
              <mxPoint x="440" y="720" />
              <mxPoint x="630" y="720" />
              <mxPoint x="630" y="770" />
            </Array>
          </mxGeometry>
        </mxCell>
        <mxCell id="hwLjqELJ7lXyZNX20_mi-52" value="refuse to register" style="edgeLabel;html=1;align=center;verticalAlign=middle;resizable=0;points=[];" vertex="1" connectable="0" parent="hwLjqELJ7lXyZNX20_mi-51">
          <mxGeometry x="0.46" relative="1" as="geometry">
            <mxPoint x="-76" as="offset" />
          </mxGeometry>
        </mxCell>
        <mxCell id="hwLjqELJ7lXyZNX20_mi-54" value="" style="edgeStyle=orthogonalEdgeStyle;rounded=0;orthogonalLoop=1;jettySize=auto;html=1;entryX=0;entryY=0.5;entryDx=0;entryDy=0;strokeColor=#007FFF;" edge="1" parent="WIyWlLk6GJQsqaUBKTNV-1" target="hwLjqELJ7lXyZNX20_mi-65">
          <mxGeometry x="-0.1852" y="-30" relative="1" as="geometry">
            <mxPoint x="440" y="770" as="sourcePoint" />
            <mxPoint x="770" y="770" as="targetPoint" />
            <Array as="points">
              <mxPoint x="440" y="790" />
              <mxPoint x="630" y="790" />
            </Array>
            <mxPoint as="offset" />
          </mxGeometry>
        </mxCell>
        <mxCell id="hwLjqELJ7lXyZNX20_mi-68" value="&lt;font color=&quot;#007fff&quot;&gt;patially refuse to register&lt;/font&gt;" style="edgeLabel;html=1;align=center;verticalAlign=middle;resizable=0;points=[];" vertex="1" connectable="0" parent="hwLjqELJ7lXyZNX20_mi-54">
          <mxGeometry x="-0.0778" y="2" relative="1" as="geometry">
            <mxPoint x="7" y="2" as="offset" />
          </mxGeometry>
        </mxCell>
        <mxCell id="hwLjqELJ7lXyZNX20_mi-44" value="opposition" style="whiteSpace=wrap;html=1;rounded=1;glass=0;strokeWidth=1;shadow=0;" vertex="1" parent="WIyWlLk6GJQsqaUBKTNV-1">
          <mxGeometry x="320" y="730" width="120" height="60" as="geometry" />
        </mxCell>
        <mxCell id="hwLjqELJ7lXyZNX20_mi-58" value="" style="edgeStyle=orthogonalEdgeStyle;rounded=0;orthogonalLoop=1;jettySize=auto;html=1;" edge="1" parent="WIyWlLk6GJQsqaUBKTNV-1" source="hwLjqELJ7lXyZNX20_mi-65" target="hwLjqELJ7lXyZNX20_mi-66">
          <mxGeometry relative="1" as="geometry">
            <Array as="points">
              <mxPoint x="860" y="750" />
            </Array>
          </mxGeometry>
        </mxCell>
        <mxCell id="hwLjqELJ7lXyZNX20_mi-59" value="no" style="edgeLabel;html=1;align=center;verticalAlign=middle;resizable=0;points=[];" vertex="1" connectable="0" parent="hwLjqELJ7lXyZNX20_mi-58">
          <mxGeometry x="-0.1667" relative="1" as="geometry">
            <mxPoint as="offset" />
          </mxGeometry>
        </mxCell>
        <mxCell id="hwLjqELJ7lXyZNX20_mi-60" value="" style="edgeStyle=orthogonalEdgeStyle;rounded=0;orthogonalLoop=1;jettySize=auto;html=1;" edge="1" parent="WIyWlLk6GJQsqaUBKTNV-1" source="hwLjqELJ7lXyZNX20_mi-65" target="hwLjqELJ7lXyZNX20_mi-67">
          <mxGeometry relative="1" as="geometry" />
        </mxCell>
        <mxCell id="hwLjqELJ7lXyZNX20_mi-61" value="yes" style="edgeLabel;html=1;align=center;verticalAlign=middle;resizable=0;points=[];" vertex="1" connectable="0" parent="hwLjqELJ7lXyZNX20_mi-60">
          <mxGeometry x="-0.3333" y="2" relative="1" as="geometry">
            <mxPoint as="offset" />
          </mxGeometry>
        </mxCell>
        <mxCell id="hwLjqELJ7lXyZNX20_mi-62" style="edgeStyle=orthogonalEdgeStyle;rounded=0;orthogonalLoop=1;jettySize=auto;html=1;entryX=0;entryY=0.5;entryDx=0;entryDy=0;strokeColor=#007FFF;" edge="1" parent="WIyWlLk6GJQsqaUBKTNV-1" source="hwLjqELJ7lXyZNX20_mi-65" target="hwLjqELJ7lXyZNX20_mi-42">
          <mxGeometry relative="1" as="geometry">
            <mxPoint x="474" y="1020" as="targetPoint" />
            <Array as="points">
              <mxPoint x="710" y="910" />
            </Array>
          </mxGeometry>
        </mxCell>
        <mxCell id="hwLjqELJ7lXyZNX20_mi-63" value="no" style="edgeLabel;html=1;align=center;verticalAlign=middle;resizable=0;points=[];fontColor=#007FFF;" vertex="1" connectable="0" parent="hwLjqELJ7lXyZNX20_mi-62">
          <mxGeometry x="-0.7422" y="-6" relative="1" as="geometry">
            <mxPoint as="offset" />
          </mxGeometry>
        </mxCell>
        <mxCell id="hwLjqELJ7lXyZNX20_mi-64" value="partially&amp;nbsp; accecpted" style="edgeLabel;html=1;align=center;verticalAlign=middle;resizable=0;points=[];fontColor=#007FFF;" vertex="1" connectable="0" parent="hwLjqELJ7lXyZNX20_mi-62">
          <mxGeometry x="0.3067" relative="1" as="geometry">
            <mxPoint as="offset" />
          </mxGeometry>
        </mxCell>
        <mxCell id="hwLjqELJ7lXyZNX20_mi-65" value="appeal?" style="rhombus;whiteSpace=wrap;html=1;" vertex="1" parent="WIyWlLk6GJQsqaUBKTNV-1">
          <mxGeometry x="670" y="730" width="80" height="80" as="geometry" />
        </mxCell>
        <mxCell id="hwLjqELJ7lXyZNX20_mi-66" value="delete trademark" style="whiteSpace=wrap;html=1;" vertex="1" parent="WIyWlLk6GJQsqaUBKTNV-1">
          <mxGeometry x="800" y="585" width="120" height="60" as="geometry" />
        </mxCell>
        <mxCell id="hwLjqELJ7lXyZNX20_mi-67" value="Non-registration Adjudication" style="rounded=1;whiteSpace=wrap;html=1;" vertex="1" parent="WIyWlLk6GJQsqaUBKTNV-1">
          <mxGeometry x="950" y="740" width="120" height="60" as="geometry" />
        </mxCell>
      </root>
    </mxGraphModel>
  </diagram>
  <diagram id="UavxFROw2eaRCcb8Fj3L" name="第 2 页">
    <mxGraphModel dx="794" dy="510" grid="1" gridSize="10" guides="1" tooltips="1" connect="1" arrows="1" fold="1" page="1" pageScale="1" pageWidth="827" pageHeight="1169" math="0" shadow="0">
      <root>
        <mxCell id="0" />
        <mxCell id="1" parent="0" />
      </root>
    </mxGraphModel>
  </diagram>
</mxfile>
